<svg xmlns:xlink="http://www.w3.org/1999/xlink" xmlns="http://www.w3.org/2000/svg" viewBox="0 0 70 70" style="enable-background:new 0 0 70 70" xml:space="preserve" width="90"  height="90" ><circle cx="41.2" cy="41" r="28.8" style="" fill="#FFD800"></circle><path d="M47.7 23.5h-10V5.2c0-1.6-.5-2-2-2H29V1.9C29 1 28.4.4 27.6.4c-.9 0-1.4.6-1.4 1.5v1.3h-5.8V1.9c0-.9-.6-1.5-1.5-1.5-.8 0-1.4.7-1.4 1.5v1.3h-5.8V1.9c0-.9-.6-1.6-1.4-1.6-.9 0-1.4.6-1.5 1.5v1.3H1.9C.5 3.1 0 3.6 0 4.9v42.9c0 1.4.5 1.9 1.9 1.9h40.4c4-.1 7.2-3.3 7.2-7.3V25.3c-.1-1.3-.7-1.8-1.8-1.8zm-24.5 5.7h-4.3c-2.4 0-4.4 1.8-4.4 4.2 0 1.6-.2 3.2.2 4.8.8 3.1 3.6 5.4 6.9 5.5h1.6c.4 1 .8 1.9 1.3 2.8H2.9V5.9h5.9v1.3c0 .9.6 1.6 1.4 1.6.9 0 1.5-.6 1.5-1.6V6h5.8v1.3c0 .8.6 1.5 1.4 1.5.8 0 1.5-.6 1.5-1.4V6h5.8v1.4c0 .9.6 1.5 1.4 1.5.8 0 1.4-.6 1.4-1.5V6h5.8v17.4H25c-1.1 0-1.7.6-1.7 1.7-.1 1.4-.1 2.7-.1 4.1zm0 2.9v8.7c-2.6.4-4.7-.7-5.5-2.9-.2-.6-.2-1.2-.3-1.8v-2.5c0-.8.6-1.4 1.3-1.5h4.5zM46.5 27v15.1c0 2.8-1.9 4.6-4.6 4.6H30.7c-2.7 0-4.5-1.8-4.5-4.5V26.4h20.3v.6zM13.1 11.9c-4 0-7.2 3.2-7.2 7.3 0 3.9 3.3 7.2 7.2 7.2 4 0 7.2-3.2 7.2-7.2.1-4.1-3.2-7.3-7.2-7.3zm0 11.5c-2.4 0-4.4-2-4.4-4.4 0-2.4 2-4.4 4.4-4.3 2.4 0 4.3 2 4.3 4.3.1 2.5-1.9 4.4-4.3 4.4zm10.1-10.1c0-.8.6-1.4 1.5-1.5h5.6c.9 0 1.5.6 1.5 1.4 0 .8-.6 1.4-1.5 1.4h-5.6c-.8.1-1.4-.5-1.5-1.3zm8.7 5.8c0 .8-.7 1.4-1.6 1.4h-5.5c-1 0-1.6-.6-1.6-1.4 0-.8.7-1.4 1.6-1.4h5.5c1 0 1.6.6 1.6 1.4zm4.4 24.7c3.9 0 7.2-3.3 7.2-7.3s-3.3-7.3-7.2-7.3c-4 0-7.3 3.3-7.3 7.3s3.4 7.3 7.3 7.3zm0-11.7c2.4 0 4.3 1.9 4.3 4.4 0 2.4-2 4.4-4.4 4.4-2.3 0-4.3-2-4.3-4.5.1-2.4 2-4.3 4.4-4.3z"></path></svg>