<svg xmlns:xlink="http://www.w3.org/1999/xlink" xmlns="http://www.w3.org/2000/svg" width="123.508" height="40.315">
  <path d="M83.907 40.182a9.637 9.637 0 01-7.252-5.782c1.243-.6 2.549-1.077 3.833-1.637a5.7 5.7 0 004.04 3.481 5.371 5.371 0 005.182-1.658c1.285-1.574 1.285-3.73 1.222-5.656a7.346 7.346 0 01-3.378 2.072 9.108 9.108 0 01-8.269-2.134 10.151 10.151 0 01-3.439-7.937 10.249 10.249 0 014.849-8.393 8.468 8.468 0 018.123-.622 7.72 7.72 0 012.114 1.554c.021-.559 0-1.141.021-1.72 1.389.021 2.777 0 4.187.021v18.277a10.925 10.925 0 01-2.715 7.688 9.374 9.374 0 01-6.747 2.579 11.8 11.8 0 01-1.771-.133zm1.078-24.993a5.456 5.456 0 00-3.254 1.887 6.61 6.61 0 00.021 8.31 5.421 5.421 0 004.662 1.906 5.266 5.266 0 003.958-2.632 6.994 6.994 0 00-.705-7.833 5.107 5.107 0 00-3.816-1.715 4.891 4.891 0 00-.866.078zM41.446 31.271a10.088 10.088 0 01-7.543-4.041 10.358 10.358 0 01-1.368-9.408 9.834 9.834 0 017.563-6.486 10.413 10.413 0 017.958 1.7 9.731 9.731 0 013.917 6.217 10.225 10.225 0 01-2.01 8.31 10.113 10.113 0 01-7.879 3.73q-.32-.003-.636-.022zm-.725-16a5.574 5.574 0 00-2.9 1.845 6.575 6.575 0 00.332 8.559 5.522 5.522 0 004.933 1.533 5.584 5.584 0 003.854-2.839 6.555 6.555 0 00-1.119-7.792 5.627 5.627 0 00-3.784-1.469 5.293 5.293 0 00-1.316.165zM8.352 29.383a15.945 15.945 0 01-7.4-8.434 15.278 15.278 0 01-.1-10.342 15.778 15.778 0 015.7-7.563 16.273 16.273 0 018.662-3.046h1.1a14.991 14.991 0 0110.259 4.331c-.995 1.016-2.01 1.99-2.985 3.005a11.15 11.15 0 00-5.326-2.8A11.251 11.251 0 009.683 6.15a11.227 11.227 0 00-4.911 7.936 11.535 11.535 0 002.508 8.912 11.088 11.088 0 008.081 3.979 10.762 10.762 0 008.041-2.755 8.777 8.777 0 002.673-5.72c-3.439 0-6.88.021-10.319 0v-4.27h14.485c.746 4.581-.332 9.739-3.813 13.014a14.167 14.167 0 01-8.807 3.958c-.54.053-1.083.08-1.626.08a16.012 16.012 0 01-7.647-1.899zm55.268 1.885a10.01 10.01 0 01-7.75-4.04 10.462 10.462 0 01-1.306-9.616 9.843 9.843 0 017.5-6.279 10.306 10.306 0 018.89 2.466 10.28 10.28 0 01.973 13.76 10.1 10.1 0 01-7.853 3.719c-.151.003-.303-.001-.455-.008zm-.933-16a5.672 5.672 0 00-2.9 1.824 6.582 6.582 0 00.228 8.476 5.546 5.546 0 005.056 1.638 5.687 5.687 0 003.855-2.839 6.591 6.591 0 00-1.161-7.813 5.58 5.58 0 00-3.754-1.451 5.289 5.289 0 00-1.325.169zm44.617 12.559a10.622 10.622 0 01.767-14.236 9.352 9.352 0 019.511-1.885c3.026 1.139 4.953 4.02 5.927 6.983-4.5 1.865-8.973 3.709-13.469 5.575a5.338 5.338 0 002.86 2.694 5.8 5.8 0 005.471-.788 8.826 8.826 0 001.533-1.637c1.139.767 2.28 1.513 3.419 2.28a9.982 9.982 0 01-7.253 4.393 9.768 9.768 0 01-1.189.072 9.9 9.9 0 01-7.578-3.447zm2.984-10.4a5.922 5.922 0 00-.975 3.481q4.508-1.864 9.015-3.75a3.726 3.726 0 00-2.922-2.051 4.364 4.364 0 00-.77-.068 5.431 5.431 0 00-4.349 2.389zM98.309 30.648c.021-9.843 0-19.708 0-29.571h4.436v29.591c-.745 0-1.5.006-2.246.006-.732.001-1.463-.004-2.19-.025z" fill="#999"/>
</svg>