<svg xmlns:xlink="http://www.w3.org/1999/xlink" xmlns="http://www.w3.org/2000/svg" width="126" height="35.983">
  <path data-name="Union 2" d="M109.966 32.322a8.877 8.877 0 002.4-1.263 7.285 7.285 0 002.273-2.525 1.6 1.6 0 00.126-.757l-2.525-13.888h4.545s.884 9.217 1.01 10.354c1.263-3.662 3.914-10.354 3.914-10.354l4.293.126-5.177 11.236a27.945 27.945 0 01-5.555 8.459 9.161 9.161 0 01-4.167 2.272zm-33.079 2.777l3.031-15.655a52.088 52.088 0 00.884-5.682h3.788l-.252 2.272a5.873 5.873 0 014.544-2.524c3.157 0 4.419 2.651 4.419 5.429 0 5.176-3.282 10.352-8.333 10.352a5.45 5.45 0 01-2.524-.5h-.126l-1.137 6.313zm6.819-13.635l-.759 4.04a2.616 2.616 0 001.768.63c2.4 0 4.04-3.913 4.166-6.69 0-1.137-.5-2.4-1.767-2.4-1.514.001-2.904 1.769-3.408 4.42zM0 31.311s2.525-19.947 2.651-20.578c.126-.885.126-1.011 1.135-1.263 1.137-.379 2.147-.757 3.157-1.011.757-2.9 2.9-8.585 7.449-8.458a2.233 2.233 0 011.894 1.009h.126c1.894 0 3.031 1.642 3.662 3.409.631-.252 1.01-.378 1.01-.378a1.4 1.4 0 01.549 0c.084 0 .1.017.208.127.253.126 2.147 2.02 2.147 2.02s2.65.252 2.9.252a.272.272 0 01.252.246.051.051 0 010 .006c0 .247 3.641 25.012 3.784 25.979v.029l-10.857 2.4zM8.332 7.955l2.777-.758c.757-3.535 2.273-5.175 3.788-5.807-.252-.127-.379-.253-.631-.253-3.282-.001-5.049 4.293-5.933 6.818zm4.166-1.262l3.662-1.011V5.43a8.821 8.821 0 00-.505-3.031c-1.136.506-2.398 1.642-3.155 4.294zm4.8-1.894v.378l1.641-.5a3.8 3.8 0 00-2.02-2.651 8.687 8.687 0 01.381 2.773zm18.684 23.609l1.01-3.031a9.137 9.137 0 003.535.885c1.263 0 1.894-.757 1.894-1.516s-.505-1.262-1.768-2.02c-1.515-.884-2.777-2.146-2.777-3.913 0-3.031 2.525-5.177 6.313-5.177 2.651 0 3.535.757 3.535.757l-1.01 3.03a6.714 6.714 0 00-2.651-.63c-1.261 0-2.02.5-2.02 1.389 0 .631.505 1.135 1.642 1.767 1.641.885 3.03 2.273 3.03 4.167 0 3.41-2.777 5.3-6.564 5.3a8 8 0 01-4.17-1.009zm27.523-5.051c0-5.175 3.41-9.847 8.585-9.847 4.04 0 5.808 2.9 5.808 5.934 0 5.3-3.409 9.847-8.459 9.847a5.562 5.562 0 01-5.939-5.936zm4.419-.126c0 1.515.505 2.777 2.02 2.777 2.272 0 3.535-3.914 3.535-6.691 0-1.262-.5-2.524-2.02-2.524-2.273 0-3.535 4.04-3.535 6.438zm-11.615 5.934l1.641-8.585a9.576 9.576 0 00.126-1.894c0-1.01-.378-1.641-1.389-1.641-1.389 0-2.9 1.768-3.409 4.545l-1.389 7.449H47.6l4.166-21.842h4.292l-1.641 8.585a5.741 5.741 0 014.545-2.272c2.272 0 3.535 1.515 3.535 4.04a22.715 22.715 0 01-.252 2.777l-1.642 8.837zm45.072-.126l2.272-11.994h-2.02l.631-3.283h2.02l.126-.757a8.132 8.132 0 012.525-4.8 6.162 6.162 0 014.166-1.389 5.509 5.509 0 012.273.378l-.883 3.409a4.178 4.178 0 00-1.39-.252c-1.389 0-2.272 1.263-2.524 2.777l-.126.757h3.029l-.631 3.157h-2.9l-2.273 11.994zm-7.954 0l2.9-15.151h4.293l-2.9 15.151zm3.535-19.064a2.427 2.427 0 012.4-2.524 2.054 2.054 0 012.146 2.146 2.385 2.385 0 01-2.525 2.525 1.958 1.958 0 01-2.022-2.148z" fill="#999"/>
  <path data-name="Path 7268" d="M16.412 12.499l-1.389 4.04a5.987 5.987 0 00-2.651-.631c-2.146 0-2.273 1.263-2.273 1.641 0 1.768 4.8 2.525 4.8 6.818 0 3.409-2.146 5.555-5.05 5.555a6.939 6.939 0 01-5.178-2.146l.884-3.03a6.443 6.443 0 003.282 1.515 1.318 1.318 0 001.389-1.389c0-2.4-3.914-2.525-3.914-6.439 0-3.283 2.4-6.439 7.07-6.439a5.014 5.014 0 013.03.505" fill="#fffffe"/>
</svg>