<svg xmlns:xlink="http://www.w3.org/1999/xlink" xmlns="http://www.w3.org/2000/svg" viewBox="0 0 70 70" style="enable-background:new 0 0 70 70" xml:space="preserve" width="80"  height="80" ><circle cx="38.8" cy="37.7" r="31.2" style="" fill="#FFD800"></circle><path d="M50.7 26.6c-.4-.2-.4-.4-.5-.7-.1-1.1-.2-2.2-.5-3.2-.4-1.8-1-3.5-1.8-5.1-1.9-3.9-4.7-7.1-8.4-9.5-.3-.2-.7-.4-1-.7.1-.1.2-.1.3-.1h5.1c.2 0 .3 0 .4.2l.3.6c1.1 1.9 3.5 2.9 5.7 2 1.8-.7 2.8-2 3-3.9.1-.9-.1-1.8-.5-2.6-1-2-3.2-3-5.3-2.5-1.5.4-2.6 1.3-3.2 2.7-.1.2-.2.3-.4.3H31.3V1h-9.4v3.1H9.3c-.1.2-.2.1-.3-.2-.6-1.4-1.7-2.3-3.2-2.7-1.5-.3-2.8 0-4 .9C.8 3 .2 4.1 0 5.3c-.1.7 0 1.5.3 2.2.8 2.2 3.2 3.5 5.5 2.9C7.3 10 8.4 9.1 9 7.6c.1-.2.2-.3.4-.3h5.5c-.7.5-1.5 1-2.1 1.5-2.1 1.5-3.9 3.4-5.4 5.5-1.4 2-2.5 4.2-3.2 6.6-.5 1.6-.8 3.3-.9 4.9 0 .4-.1.6-.5.7-.1 0-.1 0-.1.1-1.5.8-2.3 2.1-2.6 3.7-.1.7 0 1.5.3 2.2C1 34 2.2 35 3.8 35.4c1.2.3 2.4 0 3.5-.6C9.1 33.7 10 31.1 9 29c-.5-1.1-1.3-2-2.5-2.5-.1-.1-.2-.1-.2-.3.1-.7.1-1.5.3-2.2.2-1.2.6-2.4 1-3.5 1.1-2.7 2.6-5.1 4.7-7.2 2-2 4.4-3.6 7-4.6l2.7-.9v2.6h9.4V7.8c.9.3 1.8.6 2.6.9 2.7 1 5.1 2.6 7.2 4.7 3.5 3.5 5.5 7.8 5.9 12.7 0 .2 0 .4-.3.5-2.2 1-3.3 3.4-2.6 5.7.8 2.5 3.5 3.8 5.9 3 2.2-.7 3.6-3.1 3.1-5.3-.1-1.6-1-2.7-2.5-3.4zM48.8 4.3c.9 0 1.6.7 1.6 1.6 0 .9-.7 1.6-1.6 1.5-.8 0-1.5-.7-1.5-1.6-.1-.8.6-1.5 1.5-1.5zM4.7 7.4c-.8 0-1.6-.7-1.6-1.6 0-.9.7-1.6 1.6-1.6.8 0 1.6.7 1.6 1.6 0 .9-.7 1.6-1.6 1.6zm0 25c-.8 0-1.6-.7-1.6-1.6 0-.9.7-1.6 1.6-1.6.8 0 1.6.7 1.6 1.6 0 .9-.7 1.6-1.6 1.6zm23.6-25h-3.1V4.3h3.1v3.1zm20.5 25c-.9 0-1.6-.7-1.6-1.6 0-.8.7-1.6 1.6-1.6.9 0 1.6.7 1.6 1.6 0 .9-.8 1.6-1.6 1.6zM27 12.5c-.2-.3-.2-.3-.4 0-3.6 6-7.2 12-10.8 18.1-.1.2-.1.3 0 .5 1.8 3.5 3.5 7 5.3 10.5 0 .1.1.1.1.3h-5.3v9c0 .3.1.3.3.3h21.6v-9.4h-5.3c.1-.1.1-.2.1-.3 1.8-3.5 3.5-7 5.3-10.5.1-.2.1-.3 0-.5-3.7-5.9-7.3-12-10.9-18zM34.6 45v2.9c0 .2-.1.2-.2.2H19V45h15.6zm-.4-13.7c-1.5 3.1-3.1 6.1-4.6 9.2l-.6 1.2c-.1.2-.2.2-.4.2h-3.8c-.2 0-.3-.1-.4-.2-1.6-3.3-3.3-6.6-4.9-9.8-.3-.6-.3-1.1.1-1.7 1.8-2.9 3.6-5.9 5.4-8.9 0-.1.1-.1.1-.2h.1v11.4h3.1V21.1h.1c0 .1.1.1.1.2 1.9 3.2 3.8 6.3 5.7 9.5.2.1.1.3 0 .5z"></path></svg>