<svg xmlns:xlink="http://www.w3.org/1999/xlink" xmlns="http://www.w3.org/2000/svg" viewBox="0 0 70 70" style="enable-background:new 0 0 70 70" xml:space="preserve" width="90"  height="90" ><circle cx="41.8" cy="40.8" r="28.2" style="" fill="#FFD800"></circle><path d="M25.5 49.2c-13 0-22.9-8.3-25.1-19.8-2.4-13 6.4-25.7 19.5-28 5.8-1 11.4 0 16.5 3 .3.2.5.1.7-.1.6-.7 1.2-1.3 1.9-2 .5-.5 1-.6 1.6-.4.6.2.9.7.9 1.4l.3 3.6c0 .4.2.5.6.6 1.2.1 2.5.2 3.7.3.6 0 1.1.3 1.3.9.2.6.1 1.1-.4 1.5l-2 2c-.2.2-.2.4-.1.7 2.9 5 3.9 10.5 3 16.2-1 6.2-4.1 11.2-9 15-4.3 3.5-9.2 5.1-13.4 5.1zm9.2-42.5c-7.6-4.5-19.3-4-26.7 4.6-7.3 8.5-6.8 21.6 1.8 29.5 8 7.4 20.6 7.6 28.8.1 8.4-7.7 8.4-19.2 4.1-26.2-.4.4-.8.9-1.2 1.3-.5.6-1.1.8-1.9.7-.6-.1-1.1-.1-1.8-.2 1.5 2.4 2.3 4.9 2.5 7.6.2 2.7-.3 5.3-1.5 7.8-1.1 2.5-2.8 4.5-5 6.2-6 4.4-14.1 4.3-19.8-.5C8.3 33 6.3 25.1 9.6 18.2c1.5-3.2 3.8-5.6 6.9-7.2 5.5-2.8 10.9-2.5 16.3.6-.1-.7-.1-1.3-.2-2-.1-.6.1-1.1.5-1.5.6-.5 1.1-.9 1.6-1.4zm-6.3 12c1.4-1.3 2.7-2.6 4-4-4.6-3.9-12.5-4.3-17.8 1.1-5.2 5.3-5 13.8.4 19 5.2 5 13.7 4.8 18.8-.6 5-5.3 4.3-13.1.7-17.3-1.3 1.3-2.6 2.7-4 4 2.6 4.1.9 8.5-2 10.5-3 2.1-7.1 1.7-9.8-.9-2.6-2.6-2.9-6.7-.8-9.7 1.9-2.8 6.3-4.6 10.5-2.1zm-2 2.3c-1.7-1.2-4.6-.7-6 1.1-1.6 1.9-1.4 4.8.4 6.5 1.8 1.7 4.7 1.8 6.5.1 1.6-1.5 2.1-4.3 1-5.8-.1.1-.2.2-.4.3L25.1 26c-.6.6-1.5.6-2 0-.5-.5-.5-1.4.1-2l2.3-2.3c.3-.2.6-.4.9-.7zm16.5-10.5c0-.1-.1-.1-.1-.2-.7-.1-1.4-.1-2.1-.2-1-.1-1.5-.6-1.6-1.6-.1-.7-.1-1.4-.2-2.2-.9.9-1.6 1.7-2.4 2.4-.7.6-1.1 1.2-.9 2.2.2.8.2 1.6.2 2.4l3.3.3c.2 0 .4-.1.6-.2.8-.8 1.6-1.6 2.5-2.4.2-.2.5-.3.7-.5z"></path></svg>