<svg xmlns:xlink="http://www.w3.org/1999/xlink" xmlns="http://www.w3.org/2000/svg" width="168.894" height="33.257">
  <path d="M9.748 27l9.8-6.256 9.8 6.256-9.8 6.254zm87.417 5.838l.053-22.624h3.649l.417 3.18a5.666 5.666 0 015.526-3.6c4.274 0 7.09 3.076 7.09 8.756v.469c0 5.526-3.128 8.446-7.09 8.446a5.49 5.49 0 01-5.369-3.128v8.5zm4.223-14.284v.313c0 2.971 1.563 4.848 4.014 4.848 2.5-.053 4.066-1.668 4.066-4.795v-.366c0-3.336-1.72-5-4.014-5-2.454-.001-4.066 1.876-4.066 5.003zm33.466.417v-.469c0-5.629 3.6-8.7 8.5-8.7 5 0 8.5 3.076 8.5 8.7v.469c0 5.526-3.44 8.5-8.5 8.5-5.425-.052-8.5-2.971-8.5-8.496zm4.431-.469v.418c0 3.023 1.563 4.742 4.067 4.742 2.5-.051 4.066-1.719 4.066-4.742v-.418c0-3.127-1.563-5-4.066-5-2.452-.002-4.068 1.719-4.068 5.003zm-18.922 5.422L120 27h-3.753V4.585h4.274v8.6a5.506 5.506 0 015.473-3.388c4.014.052 6.985 2.814 6.985 8.392v.522c0 5.578-2.815 8.758-7.09 8.758a5.579 5.579 0 01-5.526-3.542zm.052-5.578v.365c0 3.127 1.616 4.951 4.014 4.951 2.555 0 4.066-1.615 4.066-4.951v-.417c0-3.076-1.668-4.8-4.013-4.8-2.4.006-4.068 1.936-4.068 4.856zm-42.483.625v-.469c0-5.629 3.6-8.7 8.5-8.7 5 0 8.5 3.076 8.5 8.7v.469c0 5.526-3.389 8.5-8.5 8.5-5.426-.052-8.501-2.971-8.501-8.496zm4.378-.469v.418c0 3.023 1.564 4.742 4.067 4.742 2.5-.051 4.066-1.719 4.066-4.742v-.418c0-3.127-1.564-5-4.066-5-2.452-.002-4.068 1.719-4.068 5.003zm-15.951 8.549V10.214h3.492l.573 3.91c.678-2.658 2.4-4.066 5.526-4.066h1.094v4.483H75.22c-3.6 0-4.483 1.25-4.483 4.8v7.715zm97.583-.052l-3.858-5.578-3.752 5.578h-5.161l6.412-8.706-5.89-8.08h5.056l3.389 5.057 3.44-5.057h5l-5.994 8.028 6.307 8.758zm-117.131 0V6.252h7.924c5.057 0 9.227 2.918 9.227 9.592v1.406c0 6.725-3.91 9.749-9.071 9.749zm4.432-3.805h3.388c2.867 0 4.8-1.877 4.8-6.047v-1.1c0-4.17-2.033-6.047-4.952-6.047h-3.232zm-31.642-4.483l9.8-6.255-9.8-6.2L29.349 0l9.8 6.256-9.8 6.256 9.8 6.255-9.8 6.254zm-19.6 0l9.8-6.255-9.8-6.2L9.801 0l9.8 6.256-9.8 6.256 9.8 6.255-9.8 6.254zm66.307-8.5h.052z" fill="#999"/>
</svg>