<svg xmlns:xlink="http://www.w3.org/1999/xlink" xmlns="http://www.w3.org/2000/svg" width="140.65" height="33.257">
  <path d="M18.758 29.932v-3.325h3.517a3.426 3.426 0 013.518 3.325 3.426 3.426 0 01-3.518 3.325 3.425 3.425 0 01-3.517-3.325zm-9.379 0v-8.87a3.425 3.425 0 013.517-3.324 3.622 3.622 0 012.488.975 3.225 3.225 0 011.029 2.349v8.87a3.424 3.424 0 01-3.517 3.325 3.425 3.425 0 01-3.516-3.325zm88.107-11.229a10.166 10.166 0 0110.425-9.887 10.525 10.525 0 019.1 5.06l-4.765 2.5a5.027 5.027 0 00-4.334-2.4 4.854 4.854 0 00-4.977 4.721 4.853 4.853 0 004.977 4.721 5.028 5.028 0 004.334-2.4l4.765 2.5a10.523 10.523 0 01-9.1 5.062 10.167 10.167 0 01-10.424-9.88zm-24.457-.02a9.548 9.548 0 019.344-9.867c2.53 0 4.937 1.083 5.916 2.631V9.202h5.958v19h-5.958v-2.244c-.978 1.547-3.385 2.631-5.916 2.631-5.222.001-9.342-4.412-9.342-9.906zm5.632.02a4.853 4.853 0 004.977 4.72 5.564 5.564 0 004.651-2.359v-4.645a5.529 5.529 0 00-4.651-2.437 4.854 4.854 0 00-4.976 4.718zM44 26.19l1.714-3.792a11.948 11.948 0 006.773 2.012c1.795 0 2.937-.657 2.937-1.664-.041-2.786-10.812-.619-10.894-7.625-.041-3.559 3.3-6.306 8.039-6.306a12.82 12.82 0 017.63 2.167l-1.6 3.873a12.5 12.5 0 00-6.273-1.9c-1.469 0-2.448.657-2.448 1.51.041 2.746 10.895 1.237 11.018 7.932 0 3.637-3.265 6.192-7.917 6.192A16 16 0 0144 26.19zm89.04 2.012l-7.06-8.274v8.274h-5.958V.584h5.958v16.242l6.732-7.625H140l-8.324 9.172 8.977 9.83zm-69.055 0V.584h5.957v27.618zM22.28 24.388a3.633 3.633 0 01-2.488-.975 3.234 3.234 0 01-1.029-2.352 3.425 3.425 0 013.517-3.324h9.38a3.425 3.425 0 013.518 3.324 3.426 3.426 0 01-3.518 3.326zm-21.246-.975a3.234 3.234 0 01-1.029-2.352 3.425 3.425 0 013.517-3.324H7.04v3.324a3.426 3.426 0 01-3.518 3.326 3.631 3.631 0 01-2.493-.973zm17.729-11.22V3.324A3.426 3.426 0 0122.28-.001a3.428 3.428 0 013.518 3.325v8.87a3.428 3.428 0 01-3.518 3.327 3.426 3.426 0 01-3.522-3.328zm9.38 3.327v-3.326a3.425 3.425 0 013.517-3.326 3.426 3.426 0 013.518 3.326 3.427 3.427 0 01-3.518 3.326zm-24.621 0a3.426 3.426 0 01-3.517-3.326 3.425 3.425 0 013.517-3.326h9.38a3.425 3.425 0 013.517 3.326 3.426 3.426 0 01-3.517 3.326zm9.38-8.869a3.634 3.634 0 01-2.489-.975 3.232 3.232 0 01-1.028-2.352A3.426 3.426 0 0112.9 0a3.426 3.426 0 013.517 3.325v3.327z" fill="#999"/>
</svg>